<mxfile host="app.diagrams.net" modified="2023-03-26T06:49:17.462Z" agent="5.0 (Macintosh; Intel Mac OS X 10_15_7) AppleWebKit/605.1.15 (KHTML, like Gecko) Version/15.3 Safari/605.1.15" etag="H_7Y31WL3eIgMm0_h2Zs" version="21.0.10" type="github">
  <diagram name="第 1 页" id="AbzafkduosF0bffqQIEf">
    <mxGraphModel dx="1026" dy="692" grid="1" gridSize="10" guides="1" tooltips="1" connect="1" arrows="1" fold="1" page="1" pageScale="1" pageWidth="827" pageHeight="1169" math="0" shadow="0">
      <root>
        <mxCell id="0" />
        <mxCell id="1" parent="0" />
        <mxCell id="mhl2T2gVKzCM5vQt0kYu-1" value="" style="rounded=1;whiteSpace=wrap;html=1;" vertex="1" parent="1">
          <mxGeometry x="50" y="55" width="550" height="530" as="geometry" />
        </mxCell>
        <mxCell id="mhl2T2gVKzCM5vQt0kYu-2" value="&lt;p style=&quot;line-height: 380%;&quot;&gt;&lt;br&gt;&lt;/p&gt;&lt;p&gt;&lt;/p&gt;&lt;p&gt;&lt;/p&gt;" style="rounded=0;whiteSpace=wrap;html=1;align=center;" vertex="1" parent="1">
          <mxGeometry x="95" y="90" width="460" height="150" as="geometry" />
        </mxCell>
        <mxCell id="mhl2T2gVKzCM5vQt0kYu-3" value="MySQL" style="rounded=0;whiteSpace=wrap;html=1;strokeColor=#ffffff;" vertex="1" parent="1">
          <mxGeometry x="265" y="100" width="95" height="20" as="geometry" />
        </mxCell>
        <mxCell id="mhl2T2gVKzCM5vQt0kYu-4" value="线程" style="rounded=0;whiteSpace=wrap;html=1;" vertex="1" parent="1">
          <mxGeometry x="120" y="120" width="100" height="90" as="geometry" />
        </mxCell>
        <mxCell id="mhl2T2gVKzCM5vQt0kYu-30" style="edgeStyle=orthogonalEdgeStyle;rounded=0;orthogonalLoop=1;jettySize=auto;html=1;exitX=0.5;exitY=1;exitDx=0;exitDy=0;entryX=0.152;entryY=0.025;entryDx=0;entryDy=0;entryPerimeter=0;" edge="1" parent="1" source="mhl2T2gVKzCM5vQt0kYu-5" target="mhl2T2gVKzCM5vQt0kYu-27">
          <mxGeometry relative="1" as="geometry" />
        </mxCell>
        <mxCell id="mhl2T2gVKzCM5vQt0kYu-32" value="write" style="edgeLabel;html=1;align=center;verticalAlign=middle;resizable=0;points=[];" vertex="1" connectable="0" parent="mhl2T2gVKzCM5vQt0kYu-30">
          <mxGeometry x="-0.0544" y="3" relative="1" as="geometry">
            <mxPoint y="-1" as="offset" />
          </mxGeometry>
        </mxCell>
        <mxCell id="mhl2T2gVKzCM5vQt0kYu-5" value="binlog cache" style="rounded=1;whiteSpace=wrap;html=1;" vertex="1" parent="1">
          <mxGeometry x="125" y="170" width="90" height="30" as="geometry" />
        </mxCell>
        <mxCell id="mhl2T2gVKzCM5vQt0kYu-22" value="线程" style="rounded=0;whiteSpace=wrap;html=1;" vertex="1" parent="1">
          <mxGeometry x="265" y="120" width="100" height="90" as="geometry" />
        </mxCell>
        <mxCell id="mhl2T2gVKzCM5vQt0kYu-23" value="binlog cache" style="rounded=1;whiteSpace=wrap;html=1;" vertex="1" parent="1">
          <mxGeometry x="270" y="170" width="90" height="30" as="geometry" />
        </mxCell>
        <mxCell id="mhl2T2gVKzCM5vQt0kYu-24" value="线程" style="rounded=0;whiteSpace=wrap;html=1;" vertex="1" parent="1">
          <mxGeometry x="430" y="120" width="100" height="90" as="geometry" />
        </mxCell>
        <mxCell id="mhl2T2gVKzCM5vQt0kYu-25" value="binlog cache" style="rounded=1;whiteSpace=wrap;html=1;" vertex="1" parent="1">
          <mxGeometry x="435" y="170" width="90" height="30" as="geometry" />
        </mxCell>
        <mxCell id="mhl2T2gVKzCM5vQt0kYu-39" value="fsync" style="edgeStyle=orthogonalEdgeStyle;rounded=0;orthogonalLoop=1;jettySize=auto;html=1;exitX=0.5;exitY=1;exitDx=0;exitDy=0;entryX=0.5;entryY=0;entryDx=0;entryDy=0;" edge="1" parent="1" source="mhl2T2gVKzCM5vQt0kYu-27" target="mhl2T2gVKzCM5vQt0kYu-28">
          <mxGeometry relative="1" as="geometry" />
        </mxCell>
        <mxCell id="mhl2T2gVKzCM5vQt0kYu-27" value="&lt;font style=&quot;font-size: 17px;&quot;&gt;内核&lt;br&gt;page cache&lt;/font&gt;" style="rounded=0;whiteSpace=wrap;html=1;" vertex="1" parent="1">
          <mxGeometry x="100" y="310" width="460" height="70" as="geometry" />
        </mxCell>
        <mxCell id="mhl2T2gVKzCM5vQt0kYu-28" value="&lt;font style=&quot;font-size: 16px;&quot;&gt;磁盘&lt;/font&gt;" style="rounded=0;whiteSpace=wrap;html=1;" vertex="1" parent="1">
          <mxGeometry x="100" y="440" width="460" height="80" as="geometry" />
        </mxCell>
        <mxCell id="mhl2T2gVKzCM5vQt0kYu-33" style="edgeStyle=orthogonalEdgeStyle;rounded=0;orthogonalLoop=1;jettySize=auto;html=1;exitX=0.5;exitY=1;exitDx=0;exitDy=0;entryX=0.152;entryY=0.025;entryDx=0;entryDy=0;entryPerimeter=0;" edge="1" parent="1">
          <mxGeometry relative="1" as="geometry">
            <mxPoint x="314.5" y="198" as="sourcePoint" />
            <mxPoint x="314.5" y="310" as="targetPoint" />
          </mxGeometry>
        </mxCell>
        <mxCell id="mhl2T2gVKzCM5vQt0kYu-34" value="write" style="edgeLabel;html=1;align=center;verticalAlign=middle;resizable=0;points=[];" vertex="1" connectable="0" parent="mhl2T2gVKzCM5vQt0kYu-33">
          <mxGeometry x="-0.0544" y="3" relative="1" as="geometry">
            <mxPoint y="-1" as="offset" />
          </mxGeometry>
        </mxCell>
        <mxCell id="mhl2T2gVKzCM5vQt0kYu-35" style="edgeStyle=orthogonalEdgeStyle;rounded=0;orthogonalLoop=1;jettySize=auto;html=1;exitX=0.5;exitY=1;exitDx=0;exitDy=0;entryX=0.152;entryY=0.025;entryDx=0;entryDy=0;entryPerimeter=0;" edge="1" parent="1">
          <mxGeometry relative="1" as="geometry">
            <mxPoint x="479.5" y="198" as="sourcePoint" />
            <mxPoint x="479.5" y="310" as="targetPoint" />
          </mxGeometry>
        </mxCell>
        <mxCell id="mhl2T2gVKzCM5vQt0kYu-36" value="write" style="edgeLabel;html=1;align=center;verticalAlign=middle;resizable=0;points=[];" vertex="1" connectable="0" parent="mhl2T2gVKzCM5vQt0kYu-35">
          <mxGeometry x="-0.0544" y="3" relative="1" as="geometry">
            <mxPoint y="-1" as="offset" />
          </mxGeometry>
        </mxCell>
      </root>
    </mxGraphModel>
  </diagram>
</mxfile>
